<svg width="457" height="181" viewBox="0 0 457 181" fill="none" xmlns="http://www.w3.org/2000/svg">
    <rect width="144.07" height="180.985" rx="11.324" fill="#9609DE"/>
    <g clip-path="url(#clip0_121_59)">
        <path d="M8.50244 61.6514C8.50244 61.2323 8.50244 60.8132 8.57041 60.2746C9.59613 59.7169 10.5855 59.9587 11.5667 60.0181C13.7922 60.153 15.9504 60.6625 18.1006 61.2067C18.7117 61.3614 19.0454 61.2022 19.2621 60.5841C19.6119 59.5863 20.025 58.6088 20.4473 57.6384C22.9971 51.7795 25.5492 45.9216 28.1245 40.0739C28.4197 39.4034 28.3497 39.0315 27.6393 38.7299C23.1235 36.8127 20.3189 33.2457 18.3597 28.9189C16.1902 24.128 15.9622 19.1893 17.6992 14.2458C19.0304 10.457 21.3038 7.42313 25.3574 6.13384C25.8105 5.98975 26.2705 5.82607 26.5665 5.40636C28.1446 5.40636 29.7226 5.40636 31.4584 5.44922C32.7535 5.72419 33.8492 6.38745 35.1065 5.93189C34.9793 5.59209 34.5673 5.74364 34.5722 5.40636C56.6092 5.40636 78.6462 5.40636 100.785 5.45426C100.702 6.06809 101.092 6.2144 101.471 6.1135C102.366 5.8748 103.329 5.88463 104.16 5.40636C105.191 5.40636 106.222 5.40636 107.413 5.44315C107.865 5.57005 108.154 5.67447 108.45 5.74808C111.528 6.51238 113.982 8.14835 115.77 10.8049C118.642 15.0691 119.275 19.7797 118.554 24.7305C117.824 29.7427 115.245 33.6701 111.277 36.7717C110.029 37.747 108.651 38.4627 107.203 39.2021C107.441 39.779 107.605 40.3019 107.862 40.7749C109.623 44.0263 110.973 47.4682 112.335 50.8877C113.612 54.0947 115.433 57.0562 116.454 60.3686C116.67 61.0681 117.137 61.2477 117.895 61.0637C119.683 60.6293 121.492 60.2685 123.304 59.9472C124.037 59.8172 124.8 59.8996 125.533 60.0966C125.957 60.2104 126.295 60.423 126.372 60.8892C126.449 61.3461 126.205 61.6723 125.882 61.9529C125.447 62.3299 124.893 62.4028 124.366 62.5321C122.277 63.0443 120.186 63.5513 118.094 64.0488C117.375 64.2198 117.069 64.5358 117.275 65.3573C117.59 66.6107 117.82 67.8884 117.833 69.1974C117.839 69.7664 117.924 70.3024 118.541 70.6751C120.267 71.7159 121.918 72.87 123.352 74.3055C123.579 74.5327 124.079 75.3921 124.542 75.0968C124.36 74.5605 135.836 79.9933 135.464 79.6128C134.505 78.6312 137.02 78.1768 135.875 77.4574C134.767 76.7619 134.307 77.1719 134.233 76.0205C134.195 75.4446 135.652 76.5928 135.464 76.0205C135.143 75.0416 133.198 73.4432 134.233 73.2458C136.247 72.8612 134.176 73.2634 134.54 69.7597C135.38 69.5605 134.302 67.7022 134.54 66.8858C134.723 66.2617 136.083 66.022 135.464 65.6542C134.415 65.0305 139.627 62.6529 138.338 63.0883C137.98 63.209 147.368 68.6571 134.54 64.4226C133.303 64.4071 138.074 61.4002 136.901 61.7137C135.88 61.9867 135.103 60.2719 134.848 59.2111C134.77 58.8842 134.375 59.2908 134.233 58.9828C133.12 56.5821 135.281 57.6133 134.233 55.1853C132.759 51.7742 135.508 48.0342 133.822 44.7163C133.428 43.9416 133.564 42.1176 134.233 41.7398C135.029 41.2899 134.203 37.8423 134.848 37.2238C137.569 34.6148 139.491 33.9681 140.801 30.2245C141.503 28.219 135.963 25.7251 136.183 23.659C136.484 20.8221 136.593 20.7098 135.669 18.0307C135.104 16.3902 136.319 13.5475 135.156 12.2487C133.777 10.7073 141.92 13.9676 139.878 13.2068C139.617 13.1097 149.525 7.15118 134.848 7.15118C142.371 7.15118 129.059 5.09845 136.593 5.09845C136.593 54.5053 133.309 104.22 133.24 153.693C135.464 153.287 138.588 153.502 137.004 153.287C134.32 152.921 153.617 151.136 135.875 151.136C134.795 151.206 137.017 151.767 135.978 151.767C135.833 151.34 137.911 151.389 138.03 151.146C139.229 148.703 134.898 153.492 135.464 150.808C135.895 148.763 136.354 156.077 136.285 153.929C136.202 151.333 135.459 153.938 135.464 151.339C135.467 150.013 136.514 150.683 136.285 149.406C135.898 147.248 135.935 149.296 135.464 147.148C135.314 146.46 137.412 145.714 137.414 144.993C137.418 143.824 136.035 141.426 135.875 140.291C135.685 138.944 138.239 132.459 138.03 131.137C153.842 128.384 142.555 106.301 142.136 104.143C141.77 102.261 140.351 101.505 139.878 99.627C168.086 96.9285 137.02 95.2328 136.08 92.0191C135.804 91.0748 134.937 92.6188 135.464 91.6213C135.85 90.8912 137.783 92.2021 138.441 91.6213C139.026 91.1042 141.71 92.6609 142.136 92.0191C143.37 90.1555 134.116 88.3679 134.715 86.1816C134.912 85.4605 139.304 89.0144 139.878 89.466C140.737 90.143 135.16 81.4986 136.08 82.0761C137.269 82.8224 124.084 77.0257 124.542 75.0968C124.021 74.7537 123.743 75.2788 123.483 75.6875C122.967 76.4964 122.302 76.5929 121.455 76.175C120.191 75.5511 119.06 74.7234 117.881 73.9684C116.908 73.3458 116.733 73.4072 116.405 74.5332C115.352 78.1518 113.581 81.337 110.789 83.9045C109.811 84.8033 109.223 85.7174 110.042 87.055C110.297 87.4725 110.277 88.0489 110.453 88.5267C112.035 92.8245 113.277 97.2277 114.472 101.642C116.104 107.67 117.55 113.744 118.565 119.912C119.152 123.478 119.921 127.022 120.025 130.65C120.081 132.598 120.076 134.55 120.03 136.498C119.91 141.569 118.733 146.363 116.228 150.808C115.836 151.504 115.306 152.146 115.06 153.287C121.301 152.736 127.387 152.796 133.309 154.64C133.309 155.671 133.309 156.702 133.248 157.824C132.769 158.056 132.333 158.157 131.937 158.343C130.018 159.248 128.018 159.944 126.019 160.634C121.153 162.315 116.339 164.155 111.356 165.483C111.05 165.565 110.667 165.621 110.57 166.122C111.837 167.282 112.935 168.613 113.554 170.285C113.725 170.747 114.152 170.764 114.577 170.803C116.208 170.956 117.828 171.18 119.438 171.494C120.209 171.645 120.718 171.932 120.632 172.819C120.542 173.744 120.994 174.941 119.55 175.213C118.481 175.415 117.385 175.472 116.311 175.655C114.598 175.949 101.332 174.698 99.6439 175.213C72.5478 168.317 55.0226 176.194 26.79 176.162C24.8766 176.041 23.1311 176.016 21.3999 175.847C19.6064 175.671 17.7786 175.759 16.03 175.163C15.1373 174.859 14.9215 174.254 14.9968 173.415C15.077 172.522 15.2705 171.653 16.2622 171.405C17.8502 171.006 19.4575 170.632 21.1056 170.633C21.8524 170.633 22.2557 170.407 22.5961 169.704C23.9997 166.805 26.2284 164.793 29.3137 163.775C29.8552 163.596 30.3939 163.409 30.9125 163.233C30.9063 162.967 30.7651 162.862 30.6235 162.768C26.8368 160.264 23.7986 157.042 21.2768 153.275C17.8565 148.166 16.0571 142.548 15.8367 136.435C15.5902 129.596 16.6352 122.88 18.0553 116.221C19.1942 110.882 20.2301 105.515 21.842 100.285C23.2902 95.5858 24.6826 90.8694 26.1137 86.1649C26.2744 85.6367 26.3098 85.221 25.8668 84.7728C23.7416 82.623 21.9707 80.2213 20.6968 77.4582C20.0146 75.9786 19.3554 74.5031 19.2448 72.7526C18.871 72.9557 18.6679 73.0744 18.4577 73.1789C16.6531 74.0758 15.1222 75.4499 13.202 76.1537C12.3137 76.4793 11.7325 76.1346 11.2949 75.4378C10.8637 74.7512 11.308 74.2423 11.8052 73.8603C12.5623 73.2786 13.3618 72.7479 14.17 72.2378C15.178 71.6016 16.0817 70.751 17.2645 70.4568C17.9174 70.2943 18.0959 69.95 18.0633 69.3692C17.9979 68.2001 18.1696 67.0503 18.3643 65.9054C18.5775 64.6521 18.3613 64.4497 17.1199 64.0408C14.2834 63.1064 11.1121 63.3868 8.50244 61.6514ZM42.1379 2.01934C41.8412 1.05493 35.9677 6.5132 35.1065 5.93189C35.4946 7.26859 38.1729 7.72857 38.9626 8.18654C40.0929 9.33792 41.3947 10.0611 42.1379 9.95039C41.4041 8.94844 43.0677 2.09716 42.1379 2.01934ZM110.528 153.929C114.914 148.209 116.944 141.664 116.966 134.537C116.987 127.574 115.659 120.755 114.222 113.968C112.648 106.539 110.428 99.2838 108.248 92.0191C107.859 90.7243 107.373 89.4587 106.944 88.2145C106.36 88.2075 106.058 88.5116 105.725 88.7352C103.227 90.4126 100.779 92.1828 98.038 93.4494C90.3025 97.0234 82.2268 99.2339 73.6751 99.7511C67.6024 100.118 61.5496 99.936 55.5837 98.9667C46.2369 97.4479 37.4284 94.3772 29.8169 88.4895C29.1535 87.9764 28.8739 88.1954 28.6683 88.8851C28.3658 89.9 28.0548 90.9128 27.7193 91.9172C26.0192 97.0066 24.4563 102.144 23.1902 107.352C21.4013 114.712 19.6598 122.085 19.1816 129.699C18.9405 133.537 18.8561 137.346 19.5769 141.123C20.4093 145.486 22.1835 149.457 24.8925 152.994C30.5188 160.342 37.8294 164.283 47.2125 164.017C48.4352 163.982 49.5903 163.651 50.9101 163.077C49.8167 162.541 48.8375 162.317 48.0209 161.765C44.0225 159.062 40.0842 156.302 37.0191 152.477C34.4854 149.315 32.4045 145.943 31.5524 141.927C31.3831 141.129 31.1867 140.319 31.2668 139.497C31.3226 138.923 31.5772 138.449 32.2518 138.363C32.9151 138.279 33.281 138.609 33.4773 139.197C33.6613 139.748 33.8441 140.299 34.0237 140.851C36.6391 148.896 41.7427 154.847 49.2231 158.735C56.8462 162.697 65.0214 163.566 73.4497 162.828C79.6823 162.283 85.4125 160.336 90.4202 156.517C94.8873 153.11 98.6622 149.122 100.728 143.76C101.306 142.26 101.855 140.753 102.315 139.212C102.464 138.714 102.677 138.25 103.369 138.315C104.054 138.378 104.435 138.746 104.575 139.375C104.64 139.669 104.641 139.989 104.612 140.291C104.274 143.824 102.845 146.935 100.854 149.81C97.2872 154.961 92.6619 158.953 87.2655 162.082C86.6006 162.468 85.8979 162.788 85.1232 163.184C91.4688 165.387 103.373 163.229 110.528 153.929ZM26.8246 50.4898C26.0334 52.3817 25.3587 54.3334 24.4246 56.1519C22.8738 59.1706 21.9173 62.3548 21.3876 65.6784C21.1997 66.8574 20.8139 68.0345 20.9688 69.3202C21.6746 69.0768 21.5233 68.1869 22.2116 68.0679C22.3784 68.3734 22.2375 68.6785 22.2492 68.9766C22.2999 70.269 22.1655 71.5881 22.4748 72.8473C23.4462 76.8021 25.53 80.1757 28.3838 83.0018C33.2878 87.8581 39.2298 91.0772 45.751 93.1686C52.0466 95.1875 58.4701 96.5783 65.1509 96.5985C71.1001 96.6165 77.0066 96.6043 82.8773 95.2937C89.2069 93.8807 95.238 91.8419 100.735 88.3492C104.259 86.1095 107.386 83.3819 109.907 80.0839C112.35 76.8885 114.047 73.3301 113.163 69.0754C113.103 68.789 112.984 68.3869 113.407 68.1925C113.951 68.3927 113.857 69.1225 114.397 69.336C114.711 68.9742 114.603 68.5452 114.569 68.1617C114.213 64.0838 113.288 60.1757 111.446 56.4712C108.829 51.2066 106.969 45.5985 104.29 40.3569C101.542 34.9784 98.2075 30.0743 93.2841 26.39C88.8583 23.078 84.1501 20.391 78.7034 19.149C77.4351 18.8598 76.2415 18.7469 75.0456 19.4502C74.4128 19.8224 73.6731 20.0572 72.8993 19.6828C72.7434 18.625 73.8779 18.1259 73.9445 17.0605C71.7352 17.2201 69.8365 18.4699 67.7575 18.8031C67.505 18.2613 67.7163 17.9523 67.8027 17.6342C68.1249 16.4489 68.4727 15.2703 68.7798 14.0812C68.8677 13.7412 69.175 13.3458 68.8113 13.0276C68.4089 12.6757 68.0311 13.0375 67.6895 13.2147C65.6474 14.2736 63.7313 15.52 62.0609 17.1164C61.0259 18.1056 59.8837 18.8064 58.3991 18.986C54.7906 19.4227 51.4377 20.682 48.2751 22.4385C43.2234 25.2441 38.7807 28.7479 35.4958 33.5962C31.9471 38.8338 29.2835 44.519 26.8246 50.4898ZM114.804 15.7919C114.687 15.471 114.576 15.1483 114.453 14.8298C113.761 13.0376 112.686 11.8394 110.531 12.2219C110.067 12.3043 109.575 12.2212 109.098 12.2487C107.632 12.333 106.293 12.7607 105.11 13.6693C102.628 15.5755 101.101 18.1039 100.203 21.0581C99.9059 22.036 100.077 22.2646 101.086 22.0643C102.69 21.7459 104.274 21.7409 105.855 22.191C106.941 22.5001 107.857 23.0646 108.56 23.9489C108.875 24.3448 109.335 24.7969 109.036 25.3067C108.724 25.8384 108.12 25.5863 107.637 25.467C106.974 25.3032 106.329 25.0623 105.663 24.9173C103.852 24.5233 102.12 24.7296 100.558 25.7799C99.3561 26.5878 99.3498 27.2459 100.449 28.186C101.025 28.6782 101.606 29.073 102.4 29.2223C103.49 29.4272 103.793 30.2131 103.311 31.1996C102.921 31.9985 103.192 32.4407 104.077 32.4554C104.463 32.4618 104.814 32.3386 105.164 32.1921C106.283 31.7238 107.236 31.0121 108.147 30.2245C108.569 29.8588 109.039 29.2747 109.65 29.7268C110.225 30.1513 110.053 30.8616 109.85 31.434C109.683 31.9063 109.391 32.3526 109.078 32.7515C108.42 33.5934 107.578 34.2391 106.691 34.8314C106.377 35.0411 105.912 35.1711 106.005 35.8784C108.383 35.4568 110.097 34.0021 111.516 32.3038C115.545 27.4824 116.487 21.9592 114.804 15.7919ZM30.4967 22.0296C31.7591 21.9538 33.0189 21.9102 34.281 22.0746C35.3356 22.212 35.647 21.8155 35.3507 20.7608C35.0999 19.8685 34.7034 19.0353 34.2728 18.2184C32.1198 14.1334 28.9116 11.7998 24.1193 12.2635C22.9641 12.3753 21.904 12.7842 21.3535 14.0632C20.4059 16.2649 19.9272 18.5589 19.8918 20.9232C19.8435 24.1465 20.9108 27.0919 22.4907 29.8587C23.6221 31.8399 24.9854 33.62 27.0723 34.7049C27.4448 34.8986 27.8204 35.2155 28.2575 34.7991C28.1369 34.1609 27.6 33.9029 27.2382 33.518C26.4385 32.6674 25.8818 31.7226 25.8849 30.5187C25.8859 30.1329 25.9267 29.7172 26.3223 29.5558C26.7056 29.3995 27.0483 29.6296 27.3375 29.8891C27.8196 30.3217 28.2648 30.8028 28.7825 31.1868C29.985 32.0788 30.3433 32.0501 31.5688 31.1126C31.1158 30.1436 30.9092 29.126 30.8515 28.056C30.7784 26.6993 30.4032 26.4084 29.0673 26.4723C28.7623 26.4869 28.446 26.493 28.1505 26.4299C27.5769 26.3075 26.9838 26.1386 26.7705 25.508C26.5568 24.8761 26.9111 24.3825 27.3152 23.9456C28.146 23.0476 29.1897 22.4796 30.4967 22.0296ZM28.5937 167.444C26.8977 168.369 25.7406 169.753 25.0985 171.568C24.9894 171.876 24.7997 172.216 25.1823 172.491C25.9093 173.015 27.4546 172.553 27.8253 171.708C28.5986 169.944 29.9217 168.692 31.5851 167.794C32.3553 167.378 33.2314 167.234 33.788 168.082C34.3663 168.964 33.5561 169.464 32.9909 169.904C32.2988 170.443 31.7884 171.104 31.3327 171.832C30.9199 172.492 31.0512 172.842 31.8618 172.885C33.0112 172.947 34.143 172.834 35.3409 172.642C35.0979 172.446 34.7499 172.477 34.7983 172.141C34.839 171.859 35.0867 171.779 35.3267 171.731C35.7193 171.654 36.117 171.708 36.3593 172.028C36.7017 172.479 37.1224 172.558 37.6252 172.461C41.481 171.721 45.345 171.009 49.0138 169.545C49.7219 169.262 50.3202 168.799 50.7649 168.168C51.0234 167.801 51.3024 167.383 51.0459 166.943C50.8064 166.533 50.3511 166.762 50.0065 166.813C46.1684 167.376 42.3652 167.183 38.6315 166.161C35.1408 165.206 31.8787 165.752 28.5937 167.444ZM108.29 168.267C107.464 167.466 106.5 166.866 105.404 166.556C102.555 165.75 99.6871 165.155 96.7464 166.175C96.3007 166.329 95.808 166.348 95.3377 166.433C92.2282 166.995 89.1011 167.183 85.9472 166.917C85.0112 166.839 84.7585 167.253 85.1714 168.101C85.6056 168.992 86.3979 169.516 87.2642 169.823C90.6831 171.037 94.2217 171.797 97.7878 172.429C98.2033 172.503 98.602 172.579 98.8687 171.984C99.1181 171.428 99.7007 171.719 100.153 171.846C100.553 171.958 100.835 172.149 100.556 172.622C101.467 172.779 102.305 172.386 103.163 172.571C103.523 172.649 103.951 172.777 104.187 172.369C104.41 171.982 104.132 171.627 103.916 171.341C103.464 170.743 102.959 170.184 102.469 169.615C102.14 169.234 101.859 168.8 102.112 168.317C102.38 167.807 102.936 167.888 103.403 167.956C104.361 168.097 105.261 168.41 106.034 169.023C106.94 169.742 107.601 170.608 107.911 171.756C108.149 172.64 108.805 172.83 109.892 172.482C110.825 172.183 110.372 171.562 110.201 171.066C109.838 170.017 109.232 169.109 108.29 168.267ZM106.841 8.78251C106.193 8.77655 105.549 8.75297 104.9 8.85959C98.2465 9.95257 93.5715 13.6219 90.6927 19.6789C90.3964 20.3023 90.4553 20.6683 91.039 21.0206C92.3278 21.7983 93.5029 22.7371 94.6898 23.659C95.6772 24.4258 96.0847 24.2877 96.325 23.0423C96.9732 19.684 98.4614 16.7156 100.487 14.0018C101.771 12.2819 103.321 10.8602 105.342 10.0227C106.406 9.58186 107.535 9.44685 108.81 9.36101C108.182 8.86143 107.566 8.94749 106.841 8.78251ZM32.2503 11.0985C36.6065 14.4355 38.5802 19.1382 39.714 24.3302C39.9388 24.2776 40.0967 24.2856 40.1906 24.2119C41.6681 23.0532 43.1623 21.9187 44.7408 20.898C45.2903 20.5427 45.2362 20.0645 44.9602 19.5554C41.8986 13.9083 37.4004 10.0938 30.9946 8.86241C28.9807 8.47528 26.9398 8.69902 24.9486 9.82456C29.6769 9.65319 30.0219 9.71202 32.2503 11.0985ZM119.715 156.158C117.575 156.378 115.435 156.591 113.296 156.823C112.643 156.894 111.943 157.031 111.552 157.582C110.292 159.36 108.355 160.331 106.772 161.72C106.399 162.047 105.932 162.321 105.859 162.857C105.95 163.07 106.095 163.159 106.271 163.178C107.346 163.297 108.399 163.091 109.401 162.775C114.089 161.294 118.761 159.76 123.436 158.237C123.655 158.165 123.999 158.041 124.028 157.891C124.246 156.778 125.162 156.997 125.886 156.875C126.22 156.819 126.568 156.857 126.91 156.842C127.24 156.827 127.569 156.799 127.898 156.776C125.24 156.031 122.572 156.146 119.715 156.158ZM56.6391 173.878C57.1866 173.791 56.6604 173.36 56.6391 172.885C56.5915 171.824 57.9533 174.544 57.9734 173.572C58.7987 172.976 58.6269 173.392 59.3077 173.572C60.4616 173.876 58.7931 172.479 59.9235 172.742C61.684 173.152 66.1661 172.582 67.9292 172.742C71.2769 173.045 65.0498 172.959 68.3397 172.369C69.3594 172.186 73.728 172.836 74.7032 172.407C75.497 172.058 77.7409 171.487 77.6797 172.385C77.6012 173.536 81.1805 171.231 81.6825 172.191C83.5671 173.648 82.1106 170.647 82.6918 170.317C81.8535 168.742 81.3532 167.073 81.4673 165.255C81.4978 164.768 81.0041 164.726 80.6102 164.799C79.8387 164.943 79.0691 165.099 78.304 165.273C73.1626 166.44 67.9853 166.737 62.7402 166.089C60.1915 165.775 57.7128 165.143 55.1974 164.682C54.5348 164.56 54.0308 164.632 54.1672 165.434C54.4823 167.286 48.8676 172.614 47.8123 174.244C48.3065 174.244 44.2201 175.847 56.6391 173.878ZM78.6812 16.0053C81.4223 16.3302 84.0095 17.2004 86.5115 18.3151C87.334 18.6814 87.7267 18.5167 88.1153 17.7427C90.3081 13.3758 93.4656 9.93268 97.8622 7.69086C98.1503 7.54394 98.62 7.47039 98.5362 6.83529C96.7974 7.13188 99.0618 0.967024 97.8622 2.01934C90.2013 1.50616 88.8032 2.85215 87.5154 5.43088C87.2126 6.03711 86.8998 -0.697216 86.5115 -0.136035C82.8341 -17.796 82.814 1.17114 82.4009 0.992972C80.6873 0.253812 83.2181 4.01546 81.3746 3.66153C80.0671 3.41052 81.5792 5.46632 80.8614 4.07208C80.3155 3.01175 81.4445 4.64999 80.2456 4.6879C79.008 4.72703 77.8625 4.44559 78.2434 3.25098C78.744 1.68062 73.5636 4.24111 71.932 4.07208C70.6511 3.93938 67.4578 3.53469 66.287 4.07208C62.9578 5.60006 60.0569 12.9267 57.4458 15.672C58.0908 15.409 60.587 14.6167 61.0373 14.0993C62.4222 12.5081 64.2025 11.4207 65.9558 10.2968C67.5329 9.28595 69.2048 8.56779 71.0856 8.36851C72.4732 8.22149 73.3483 9.00023 73.2068 10.3844C73.1345 11.0926 72.9099 11.7853 72.7546 12.485C72.5414 13.4453 72.7433 13.6813 73.7353 13.4937C74.7627 13.2994 75.7705 13.3105 76.7879 13.5337C77.6562 13.7243 78.1661 14.1614 77.8953 15.116C77.7286 15.7036 77.9438 15.9598 78.6812 16.0053ZM56.0233 -1.67559C54.9431 -1.38691 47.4378 0.34117 46.3754 0.68506C44.0485 1.43831 49.5556 17.0085 49.0024 17.9914C51.4409 17.0894 55.0913 16.3084 57.4458 15.672C57.1958 15.1845 56.4937 -1.71635 56.0233 -1.67559ZM46.7706 16.3091C46.9489 16.6394 47.1247 16.971 47.306 17.2997C47.7247 18.059 47.926 18.1465 49.0024 17.9914C47.1448 16.3393 44.2187 11.3876 42.1379 9.95039C42.5488 11.4204 46.0611 14.8401 46.7706 16.3091ZM31.9489 26.8648C31.6967 27.1251 31.508 27.4143 31.7681 27.7601C32.014 28.0871 32.3792 28.1853 32.7695 28.1127C33.2012 28.0324 33.5093 27.7785 33.6255 27.3416C33.6979 27.0695 33.7046 26.774 33.4562 26.5938C32.9507 26.2273 32.4962 26.4739 31.9489 26.8648Z" fill="#EDDBF6"/>
        <path d="M27.8258 108.249C27.7258 106.933 27.5402 105.708 27.8269 104.486C27.9122 104.122 28.0016 103.758 28.1178 103.404C28.3208 102.785 28.7774 102.581 29.4006 102.651C30.0261 102.721 30.2634 103.128 30.3464 103.685C30.5433 105.007 30.4447 106.343 30.5402 107.674C30.7846 111.081 32.6512 113.544 35.064 115.657C37.7312 117.992 40.7117 119.859 44.1105 120.978C45.4182 121.408 46.6151 122.064 47.823 122.705C48.1469 122.876 48.5342 123.137 48.8739 122.853C49.2558 122.534 48.9946 122.09 48.9165 121.702C48.8375 121.31 48.2628 120.921 48.8134 120.53C49.3671 120.136 49.9773 120.236 50.5492 120.577C51.0358 120.867 51.2839 121.491 51.979 121.591C52.3355 121.028 52.022 120.539 51.8043 120.067C51.6173 119.661 51.4084 119.281 51.4373 118.809C51.5133 117.569 52.2819 117.129 53.3721 117.714C53.549 117.809 53.7332 117.891 53.9168 117.973C53.9364 117.982 53.9747 117.948 54.0656 117.905C54.0684 117.337 53.8211 116.818 53.5887 116.298C52.1877 113.163 50.3697 110.28 48.3585 107.504C47.1558 105.845 46.0493 104.117 44.7829 102.5C44.416 102.032 43.9588 101.442 44.5346 100.852C45.1227 100.249 45.8673 100.182 46.599 100.633C47.3649 101.105 48.0048 101.735 48.5236 102.459C50.9719 105.875 53.487 109.256 55.3816 113.024C56.5723 115.393 57.3906 117.868 56.9304 120.612C56.7215 121.858 56.2935 122.839 54.9996 123.235C54.6283 123.348 54.3329 123.568 54.0671 123.844C53.5058 124.426 52.8292 124.798 52.0327 124.959C51.3934 125.088 50.7968 125.291 50.2767 125.732C49.6308 126.279 48.8212 126.263 48.1397 125.916C44.7018 124.163 40.8406 123.383 37.5551 121.293C36.3725 120.54 35.223 119.739 34.1569 118.824C33.6901 118.424 33.2432 117.992 32.7387 117.644C29.4736 115.398 28.3593 112.026 27.8258 108.249Z" fill="#EDDBF6"/>
        <path d="M102.532 120.286C100.462 121.724 98.253 122.713 95.9625 123.542C94.5462 124.055 93.1765 124.667 91.9017 125.487C90.5741 126.341 89.252 126.594 88.0039 125.308C87.7596 125.056 87.416 124.978 87.0758 124.907C85.551 124.586 84.3176 123.718 83.1834 122.721C82.1357 121.799 82.1651 120.449 82.0347 119.211C81.6776 115.821 83.0422 112.878 84.7727 110.152C86.5817 107.301 88.3339 104.39 90.6265 101.869C91.1643 101.278 91.7422 100.766 92.4564 100.409C92.8195 100.228 93.1687 100.188 93.5091 100.467C93.8623 100.756 93.9904 101.121 93.8968 101.562C93.7805 102.109 93.4835 102.572 93.178 103.026C91.5931 105.379 90.0233 107.743 88.4066 110.075C87.1123 111.941 86.1015 113.949 85.2411 116.041C85.0745 116.446 84.9004 116.86 84.9597 117.317C85.3353 117.646 85.6006 117.275 85.8982 117.186C86.8483 116.902 87.484 117.453 87.2609 118.418C87.0977 119.124 86.6712 119.72 86.3435 120.358C86.1588 120.717 85.9162 121.099 86.3192 121.477C86.7071 121.841 87.0866 121.645 87.4427 121.427C87.9088 121.141 88.3501 120.815 88.817 120.531C89.277 120.251 89.7931 120.116 90.2642 120.442C90.7608 120.787 90.595 121.261 90.4049 121.734C90.2955 122.006 90.1712 122.316 90.3718 122.589C90.5367 122.742 90.7084 122.747 90.8718 122.682C95.8406 120.695 100.701 118.556 104.568 114.651C107.063 112.131 108.223 109.192 108.019 105.68C107.992 105.202 107.952 104.724 107.948 104.246C107.942 103.472 107.922 102.712 109.038 102.653C110.353 102.584 110.972 102.922 111.055 104.111C111.224 106.545 110.927 108.912 110.24 111.289C109.216 114.832 106.527 116.921 103.961 119.164C103.524 119.546 103.048 119.883 102.532 120.286Z" fill="#EDDBF6"/>
        <path d="M66.5262 136.756C67.0209 137.83 67.8401 138.592 68.403 139.527C68.7216 140.057 69.1014 140.661 68.6048 141.222C68.0933 141.801 67.4008 141.567 66.7901 141.316C64.9978 140.579 63.6753 137.843 64.2081 135.992C64.3273 135.578 64.5563 135.251 65.0307 135.181C65.4751 135.116 65.74 135.368 65.9444 135.704C66.1394 136.025 66.3094 136.361 66.5262 136.756Z" fill="#EDDBF6"/>
        <path d="M72.9439 136.891C73.7301 137.778 74.6515 138.526 74.1635 139.865C73.8445 140.74 73.216 141.009 72.4142 140.552C71.3228 139.931 70.772 138.322 71.2748 137.159C71.6493 136.293 72.2218 136.29 72.9439 136.891Z" fill="#EDDBF6"/>
        <path d="M110.288 146.451C110.333 148.125 108.995 148.657 107.863 149.314C107.439 149.56 106.896 149.823 106.067 149.345C107.544 148.313 108.891 147.373 110.288 146.451Z" fill="#EDDBF6"/>
        <path d="M39.8534 49.2162C40.5651 47.9366 41.5329 46.9413 42.3361 45.8191C39.5105 47.0065 37.963 49.3093 37.3033 52.1331C35.4778 59.9464 39.3055 64.4001 46.3834 66.7036C46.2195 67.7521 45.649 68.0882 44.789 68.0863C42.6406 68.0816 40.6671 67.5507 38.9755 66.1694C35.7925 63.5703 34.2424 60.1483 33.987 56.1078C33.7155 51.8135 34.8339 47.9747 37.935 44.8678C42.3732 40.4215 50.5027 38.6818 55.9407 44.6747C60.1816 49.3482 61.1616 55.5828 57.6661 60.4692C54.9467 64.2705 51.0309 65.7558 46.4871 64.7445C42.3623 63.8264 39.6189 61.139 38.6655 56.9434C38.0623 54.2891 38.6587 51.7209 39.8534 49.2162ZM52.649 50.5588C53.1009 49.3473 52.8442 48.2089 52.2894 47.1028C51.4257 45.3807 49.9316 44.6476 47.7605 44.8772C46.1808 45.0443 44.6678 46.4519 44.218 48.173C43.7498 49.9643 44.3555 51.6627 45.7879 52.7137C47.7521 54.1549 51.6397 53.9954 52.649 50.5588ZM52.2097 55.6012C52.1875 56.0876 52.4222 56.452 52.7733 56.7517C53.498 57.3702 54.378 57.3322 54.9532 56.6658C55.5314 55.9959 55.3964 55.163 54.6072 54.5315C53.6331 53.7521 52.7418 54.0945 52.2097 55.6012ZM42.0524 57.22C42.9594 57.2853 43.4964 56.8253 43.615 55.9694C43.7258 55.1694 43.1949 54.6816 42.5158 54.4402C41.7773 54.1777 41.2732 54.6493 40.9059 55.2129C40.4427 55.9237 40.7622 56.5129 42.0524 57.22Z" fill="#EDDBF6"/>
        <path d="M97.3859 47.5926C98.5066 49.3188 99.5696 50.9844 99.8352 53.0244C100.589 58.8141 96.9393 63.7959 91.1977 64.7898C84.9451 65.872 79.2326 61.0073 79.1328 54.6266C79.0609 50.0304 80.7556 46.2714 84.2686 43.3975C88.0817 40.278 93.3 40.0401 97.6685 42.8765C102.767 46.187 105.098 50.8863 104.371 57.0232C103.905 60.9555 102.09 64.0637 98.896 66.3637C97.2397 67.5562 95.3687 68.1426 93.3129 68.0757C93.0744 68.0679 92.8327 68.0551 92.5996 68.0087C92.0341 67.8963 91.6956 67.5568 91.6324 66.9689C91.5596 66.2917 92.1226 66.2986 92.5168 66.208C95.0676 65.6217 97.2299 64.3583 98.9395 62.3988C101.918 58.9844 102.325 54.3914 100.142 50.0308C99.3609 48.4719 98.2804 47.1997 96.7763 46.28C96.9345 46.7188 97.3529 47.0259 97.3859 47.5926ZM93.138 45.7741C92.9402 45.6409 92.7517 45.4908 92.5432 45.3771C90.3202 44.1649 87.716 44.9657 86.6177 47.1941C85.4845 49.4934 86.2644 52.0807 88.3851 53.0572C90.9143 54.2218 93.5619 53.2849 94.5481 50.8762C95.2473 49.1684 94.7781 47.3536 93.138 45.7741ZM96.7891 54.432C95.9692 53.9681 95.1995 53.9645 94.6841 54.8426C94.2848 55.5231 94.3679 56.2233 95.0112 56.7584C95.6094 57.2561 96.5069 57.1791 97.0195 56.5803C97.623 55.8755 97.6059 55.1754 96.7891 54.432ZM83.4108 55.7406C83.5955 56.5519 84.1662 57.0047 84.9338 57.0015C85.6271 56.9987 86.1462 56.5066 86.3072 55.8179C86.481 55.0741 85.9915 54.5835 85.4326 54.2255C84.5701 53.6729 83.6872 54.2825 83.4108 55.7406Z" fill="#EDDBF6"/>
        <path d="M79.6062 72.6295C80.1474 74.0502 79.4162 75.8541 77.959 76.8241C77.1272 77.3778 76.2209 77.7913 75.2476 78.0071C74.5145 78.1695 74.2017 78.491 74.1199 79.3031C73.8796 81.6902 72.5008 82.8625 70.0808 82.8742C69.1284 82.8789 68.1728 82.9528 67.2279 82.6867C65.7691 82.2759 64.7965 81.3726 64.5894 79.8778C64.4159 78.6258 63.9046 78.0064 62.5991 77.759C60.7522 77.409 59.5644 76.1401 58.9497 74.3632C58.7087 73.6662 58.798 73.0041 59.2826 72.4368C60.0202 71.5733 60.9164 71.687 61.3406 72.7366C61.6871 73.594 62.1465 74.2913 62.9999 74.7264C64.824 75.6564 66.6078 74.9638 67.3319 73.044C67.5732 72.4043 67.201 72.0939 66.8093 71.748C65.5032 70.5946 64.1485 69.4904 63.0953 68.0805C62.3668 67.1055 61.8486 66.0908 61.8674 64.7973C61.8868 63.4703 62.4764 62.5866 63.5662 61.9775C65.3746 60.9668 67.354 60.6027 69.3948 60.6442C70.999 60.6768 72.5996 60.8297 74.1169 61.4517C76.7938 62.5489 77.5922 64.7721 76.0691 67.2328C74.9777 68.9959 73.4139 70.3457 71.7792 71.5992C70.7551 72.3845 70.6974 72.6843 71.5491 73.6405C72.3434 74.5323 73.2626 75.2044 74.5522 75.143C75.7971 75.0837 76.6563 74.4007 77.0656 73.1012C77.5775 71.4759 78.3183 71.3155 79.6062 72.6295ZM66.9546 78.4073C67.5945 80.0837 67.8894 80.285 69.6725 80.2628C70.9318 80.247 71.7956 79.421 71.7576 78.2689C71.7416 77.7847 69.7557 75.9847 69.2893 76.0503C69.1664 76.0675 69.0326 76.1543 68.9446 76.2477C68.4453 76.7772 67.8535 77.1699 67.2051 77.4903C66.8765 77.6527 66.8059 77.9332 66.9546 78.4073ZM72.8748 64.0431C72.7717 63.9137 72.6948 63.718 72.5614 63.665C70.2866 62.7624 68.0191 62.9557 65.7993 63.8352C65.2105 64.0685 65.3025 64.5801 65.8594 64.7943C66.5857 65.0737 67.3485 65.3331 68.1157 65.4168C69.8377 65.6045 71.5107 65.4476 72.8748 64.0431Z" fill="#EDDBF6"/>
        <path d="M93.301 34.757C93.5383 35.4176 93.5338 35.989 93.0616 36.441C92.5657 36.9157 92.0248 36.6115 91.5375 36.4058C90.205 35.8433 88.8137 35.5677 87.382 35.441C86.5686 35.3689 85.7178 35.1973 85.655 34.2066C85.5937 33.2397 86.2174 32.669 87.1395 32.3932C89.1273 31.7986 92.053 32.8813 93.301 34.757Z" fill="#EDDBF6"/>
        <path d="M51.7685 32.5828C52.6058 32.9479 52.9367 33.5286 52.7869 34.3428C52.6399 35.1418 52.04 35.4628 51.3163 35.5456C49.746 35.7251 48.2248 36.0753 46.7706 36.7018C46.3485 36.8836 45.969 36.811 45.6416 36.4889C45.2881 36.1411 45.2207 35.72 45.3543 35.2603C45.5765 34.4955 46.1058 33.9461 46.7404 33.5371C48.2513 32.5631 49.8733 32.0324 51.7685 32.5828Z" fill="#EDDBF6"/>
        <path d="M95.3193 70.6752C96.003 70.8967 96.496 71.2441 96.8542 71.7741C97.0296 72.0335 97.1598 72.3058 97.1367 72.6315C97.0884 73.3116 96.3888 73.8495 95.5919 73.8163C94.4371 73.7682 93.2584 72.7935 93.2943 71.871C93.3289 70.9779 93.9029 70.6361 94.7277 70.6191C94.8974 70.6156 95.0678 70.6418 95.3193 70.6752Z" fill="#EDDBF6"/>
        <rect x="51.0964" y="170.446" width="31.6122" height="4.51602" fill="#9609DE"/>
        <rect x="132.18" y="36.6079" width="2.25801" height="117.211" fill="#9609DE"/>
        <rect x="123.969" y="72.1204" width="8.21095" height="10.6742" fill="#9609DE"/>
        <path d="M55.4075 4.99585H65.4659L61.0787 11.2748L59.1024 14.7464L57.3335 15.6701L55.4075 4.99585Z" fill="#9609DE"/>
        <path d="M42.0644 10.0251L41.8591 9.10136L42.0644 5.40643H49.0437V18.0308L47.1962 16.5938L43.9119 11.7699L42.0644 10.0251Z" fill="#9609DE"/>
        <path d="M97.0779 5.20111H101.183V6.22748L98.4122 7.35648L97.0779 6.22748V5.20111Z" fill="#9609DE"/>
    </g>
    <rect x="47.8127" y="174.347" width="4.51602" height="1.43692" fill="#9609DE"/>
    <rect x="45.9648" y="5.20111" width="52.1395" height="0.821095" fill="#9609DE"/>
    <rect x="34.0593" y="4.99585" width="9.23732" height="1.02637" fill="#9609DE"/>
    <path d="M171.562 90.1012C171.562 94.4141 172.473 98.2106 174.295 101.491C176.179 104.771 178.699 107.322 181.858 109.145C185.017 110.967 188.54 111.878 192.428 111.878C196.376 111.878 199.869 111.028 202.906 109.327C205.944 107.565 208.313 105.136 210.014 102.038C211.714 98.9396 212.565 95.3556 212.565 91.2857C212.565 87.155 211.714 83.4192 210.014 80.0782C208.313 76.7373 205.883 74.0645 202.724 72.0599C199.626 70.0553 195.951 69.053 191.699 69.053C187.75 69.053 184.258 69.9642 181.22 71.7865C178.244 73.6089 175.875 76.0994 174.113 79.2582C172.412 82.4169 171.562 86.0313 171.562 90.1012ZM157.803 90.1012C157.803 85.2416 158.654 80.8072 160.354 76.798C162.055 72.7281 164.455 69.2049 167.553 66.2284C170.651 63.2519 174.235 60.9739 178.305 59.3946C182.435 57.7544 186.9 56.9344 191.699 56.9344C196.558 56.9344 201.023 57.7544 205.093 59.3946C209.163 60.9739 212.686 63.2519 215.663 66.2284C218.7 69.2049 221.039 72.7281 222.679 76.798C224.38 80.8072 225.23 85.2416 225.23 90.1012C225.23 94.9 224.41 99.3648 222.77 103.495C221.13 107.565 218.791 111.119 215.754 114.156C212.777 117.193 209.254 119.563 205.184 121.263C201.114 122.903 196.619 123.724 191.699 123.724C186.839 123.724 182.344 122.903 178.213 121.263C174.083 119.563 170.469 117.193 167.371 114.156C164.333 111.119 161.964 107.565 160.263 103.495C158.623 99.3648 157.803 94.9 157.803 90.1012ZM187.69 94.657H201.813L231.426 122.812H216.938L187.69 94.657ZM244.622 105.591C244.622 108.325 245.169 110.451 246.262 111.969C247.355 113.427 249.117 114.156 251.547 114.156C253.248 114.156 254.705 113.822 255.92 113.154C257.196 112.425 258.168 111.423 258.836 110.147C259.565 108.871 259.93 107.353 259.93 105.591V80.0782H271.684V121.992H259.93V115.614C258.593 117.983 256.892 119.805 254.827 121.081C252.762 122.296 250.241 122.903 247.264 122.903C242.283 122.903 238.547 121.476 236.057 118.621C233.627 115.766 232.412 111.848 232.412 106.867V80.0782H244.622V105.591ZM275.929 101.035C275.929 96.6616 276.932 92.8347 278.936 89.5545C281.001 86.2742 283.765 83.7229 287.228 81.9006C290.751 80.0782 294.73 79.1671 299.164 79.1671C303.599 79.1671 307.547 80.0782 311.009 81.9006C314.533 83.7229 317.297 86.2742 319.301 89.5545C321.367 92.8347 322.399 96.6616 322.399 101.035C322.399 105.348 321.367 109.175 319.301 112.516C317.297 115.796 314.533 118.348 311.009 120.17C307.547 121.992 303.599 122.903 299.164 122.903C294.73 122.903 290.751 121.992 287.228 120.17C283.765 118.348 281.001 115.796 278.936 112.516C276.932 109.175 275.929 105.348 275.929 101.035ZM287.957 101.035C287.957 103.404 288.443 105.5 289.415 107.322C290.447 109.084 291.814 110.481 293.515 111.514C295.216 112.486 297.099 112.972 299.164 112.972C301.23 112.972 303.113 112.486 304.813 111.514C306.514 110.481 307.851 109.084 308.823 107.322C309.855 105.5 310.372 103.404 310.372 101.035C310.372 98.6662 309.855 96.5705 308.823 94.7482C307.851 92.9258 306.514 91.5287 304.813 90.5568C303.113 89.5848 301.23 89.0989 299.164 89.0989C297.099 89.0989 295.216 89.5848 293.515 90.5568C291.814 91.5287 290.447 92.9258 289.415 94.7482C288.443 96.5705 287.957 98.6662 287.957 101.035ZM326.424 50.9206H337.814V121.992H326.424V50.9206ZM353.213 80.0782H367.336L349.295 97.3906L369.158 121.992H355.126L335.171 97.3906L353.213 80.0782ZM370.541 50.9206H381.931V121.992H370.541V50.9206ZM397.33 80.0782H411.453L393.412 97.3906L413.275 121.992H399.243L379.289 97.3906L397.33 80.0782ZM423.315 108.963C423.315 110.177 423.618 111.24 424.226 112.152C424.833 113.002 425.653 113.67 426.686 114.156C427.779 114.581 428.964 114.794 430.24 114.794C432.062 114.794 433.702 114.43 435.16 113.701C436.618 112.911 437.802 111.818 438.714 110.42C439.625 108.963 440.08 107.231 440.08 105.227L441.538 110.694C441.538 113.367 440.779 115.614 439.26 117.436C437.802 119.259 435.889 120.626 433.52 121.537C431.212 122.448 428.782 122.903 426.23 122.903C423.618 122.903 421.189 122.387 418.941 121.354C416.693 120.322 414.871 118.834 413.474 116.89C412.138 114.885 411.469 112.455 411.469 109.6C411.469 105.53 412.897 102.311 415.752 99.9419C418.607 97.5728 422.646 96.3883 427.871 96.3883C430.543 96.3883 432.882 96.6616 434.887 97.2083C436.952 97.755 438.683 98.4232 440.08 99.2129C441.477 100.003 442.48 100.762 443.087 101.491V106.958C441.447 105.743 439.594 104.832 437.529 104.224C435.524 103.617 433.398 103.313 431.151 103.313C429.328 103.313 427.84 103.556 426.686 104.042C425.532 104.467 424.681 105.105 424.135 105.956C423.588 106.745 423.315 107.748 423.315 108.963ZM418.759 91.9235L414.385 83.9052C416.572 82.751 419.245 81.6576 422.404 80.6249C425.562 79.5315 429.085 78.9848 432.973 78.9848C436.557 78.9848 439.746 79.5012 442.54 80.5338C445.335 81.5665 447.522 83.0851 449.101 85.0897C450.68 87.0335 451.47 89.433 451.47 92.288V121.992H440.08V94.7482C440.08 93.594 439.898 92.6221 439.534 91.8324C439.169 90.982 438.592 90.2834 437.802 89.7367C437.073 89.19 436.193 88.7952 435.16 88.5522C434.127 88.3092 432.973 88.1877 431.698 88.1877C429.754 88.1877 427.901 88.4003 426.139 88.8255C424.378 89.2507 422.859 89.7671 421.583 90.3745C420.308 90.982 419.366 91.4983 418.759 91.9235Z" fill="#9609DE"/>
    <defs>
        <clipPath id="clip0_121_59">
            <rect width="124.806" height="170.788" fill="white" transform="translate(9.63184 5.20111)"/>
        </clipPath>
    </defs>
</svg>
