<svg width="877" height="275" viewBox="0 0 877 275" fill="none" xmlns="http://www.w3.org/2000/svg">
    <rect width="218.897" height="274.985" rx="17.2055" fill="white"/>
    <g clip-path="url(#clip0_121_87)">
        <path d="M12.9181 93.6719C12.9181 93.0351 12.9181 92.3984 13.0214 91.5801C14.5798 90.7327 16.083 91.1001 17.5738 91.1904C20.9552 91.3953 24.2344 92.1694 27.5014 92.9964C28.4298 93.2314 28.9369 92.9895 29.2661 92.0504C29.7976 90.5342 30.4252 89.0492 31.0669 87.5747C34.941 78.6728 38.8187 69.7725 42.7314 60.8875C43.1801 59.8688 43.0737 59.3037 41.9942 58.8454C35.133 55.9326 30.8718 50.5128 27.895 43.9389C24.5988 36.6596 24.2523 29.1558 26.8915 21.6448C28.9141 15.8882 32.3683 11.2786 38.5273 9.31964C39.2156 9.10071 39.9145 8.85201 40.3643 8.21431C42.762 8.21431 45.1597 8.21431 47.797 8.27944C49.7647 8.69722 51.4295 9.70497 53.3398 9.01279C53.1466 8.4965 52.5206 8.72677 52.528 8.21431C86.0106 8.21431 119.493 8.21431 153.131 8.28709C153.005 9.21973 153.597 9.44203 154.172 9.28873C155.533 8.92606 156.996 8.94098 158.258 8.21431C159.825 8.21431 161.391 8.21431 163.201 8.27021C163.888 8.46303 164.327 8.62168 164.777 8.73352C169.453 9.89478 173.181 12.3804 175.899 16.4167C180.261 22.8958 181.224 30.0529 180.129 37.5751C179.02 45.1905 175.101 51.1578 169.072 55.8703C167.176 57.3521 165.082 58.4395 162.881 59.563C163.244 60.4395 163.493 61.2339 163.883 61.9526C166.559 66.8927 168.61 72.1223 170.679 77.3178C172.619 82.1904 175.387 86.6902 176.938 91.7229C177.265 92.7857 177.975 93.0587 179.127 92.779C181.844 92.119 184.592 91.5708 187.346 91.0826C188.459 90.8851 189.618 91.0103 190.733 91.3096C191.377 91.4825 191.889 91.8056 192.008 92.5139C192.123 93.2081 191.753 93.7037 191.262 94.1301C190.601 94.7028 189.76 94.8136 188.958 95.0101C185.784 95.7884 182.608 96.5587 179.429 97.3145C178.336 97.5743 177.872 98.0544 178.185 99.3027C178.663 101.207 179.014 103.148 179.033 105.137C179.041 106.002 179.171 106.816 180.109 107.382C182.731 108.964 185.239 110.717 187.419 112.898C187.764 113.244 188.522 114.549 189.226 114.101C188.95 113.286 206.386 121.54 205.821 120.962C204.364 119.471 208.186 118.78 206.445 117.687C204.762 116.631 204.063 117.254 203.95 115.504C203.893 114.629 206.107 116.374 205.821 115.504C205.333 114.017 202.378 111.588 203.95 111.288C207.011 110.704 203.864 111.315 204.418 105.992C205.693 105.689 204.056 102.865 204.418 101.625C204.695 100.677 206.761 100.313 205.821 99.7537C204.228 98.8062 212.147 95.1936 210.188 95.8551C209.644 96.0386 223.907 104.316 204.418 97.8824C202.537 97.859 209.786 93.2903 208.005 93.7666C206.453 94.1814 205.273 91.576 204.886 89.9643C204.766 89.4675 204.167 90.0852 203.95 89.6174C202.26 85.9698 205.544 87.5365 203.95 83.8474C201.711 78.6647 205.888 72.9822 203.326 67.9411C202.728 66.764 202.935 63.9926 203.95 63.4187C205.16 62.735 203.906 57.4968 204.886 56.5571C209.02 52.593 211.94 51.6105 213.93 45.9225C214.997 42.8753 206.579 39.0863 206.913 35.947C207.371 31.6366 207.537 31.4661 206.133 27.3955C205.274 24.9029 207.12 20.5838 205.354 18.6104C203.258 16.2685 215.63 21.2221 212.527 20.0661C212.131 19.9186 227.186 10.8654 204.886 10.8654C216.316 10.8654 196.089 7.74648 207.537 7.74648C207.537 82.8144 202.547 158.35 202.441 233.518C205.821 232.901 210.568 233.229 208.161 232.901C204.083 232.346 233.402 229.633 206.445 229.633C204.805 229.739 208.18 230.591 206.602 230.591C206.382 229.943 209.539 230.018 209.72 229.649C211.542 225.937 204.962 233.213 205.821 229.135C206.477 226.027 207.174 237.141 207.069 233.877C206.942 229.932 205.814 233.891 205.821 229.942C205.825 227.926 207.417 228.944 207.069 227.005C206.481 223.725 206.536 226.838 205.821 223.574C205.592 222.528 208.78 221.395 208.784 220.299C208.791 218.524 206.688 214.881 206.445 213.156C206.157 211.109 210.037 201.255 209.72 199.246C233.744 195.064 216.595 161.511 215.958 158.233C215.402 155.374 213.247 154.225 212.527 151.371C255.386 147.271 208.186 144.695 206.757 139.812C206.337 138.377 205.02 140.723 205.821 139.208C206.408 138.098 209.345 140.09 210.344 139.208C211.233 138.422 215.312 140.787 215.958 139.812C217.834 136.981 203.774 134.264 204.683 130.943C204.983 129.847 211.656 135.247 212.527 135.933C213.833 136.962 205.359 123.827 206.757 124.705C208.564 125.839 188.531 117.031 189.226 114.101C188.434 113.579 188.013 114.377 187.617 114.998C186.833 116.227 185.823 116.374 184.536 115.739C182.616 114.791 180.898 113.533 179.106 112.386C177.628 111.44 177.361 111.534 176.863 113.244C175.263 118.742 172.572 123.582 168.33 127.483C166.845 128.849 165.951 130.237 167.195 132.27C167.584 132.904 167.552 133.78 167.82 134.506C170.223 141.036 172.111 147.726 173.926 154.432C176.405 163.591 178.603 172.82 180.146 182.192C181.037 187.61 182.206 192.995 182.364 198.508C182.448 201.467 182.44 204.433 182.37 207.393C182.188 215.097 180.4 222.382 176.595 229.135C175.999 230.193 175.193 231.168 174.82 232.901C184.302 232.065 193.548 232.156 202.547 234.958C202.547 236.524 202.547 238.09 202.454 239.795C201.727 240.147 201.063 240.3 200.462 240.584C197.547 241.959 194.508 243.015 191.471 244.065C184.078 246.619 176.763 249.413 169.192 251.432C168.726 251.556 168.145 251.642 167.998 252.402C169.923 254.165 171.591 256.188 172.532 258.729C172.792 259.43 173.441 259.455 174.086 259.515C176.564 259.747 179.025 260.088 181.471 260.565C182.642 260.794 183.416 261.23 183.285 262.577C183.148 263.984 183.835 265.802 181.641 266.216C180.017 266.523 178.352 266.609 176.721 266.888C174.117 267.333 153.962 265.433 151.397 266.216C110.227 255.738 83.5999 267.706 40.7039 267.657C37.7967 267.473 35.1446 267.436 32.5142 267.178C29.7892 266.911 27.0122 267.044 24.3554 266.14C22.9989 265.678 22.6711 264.758 22.7855 263.484C22.9073 262.127 23.2013 260.807 24.7082 260.429C27.121 259.824 29.5629 259.255 32.0671 259.256C33.2017 259.257 33.8146 258.914 34.3317 257.846C36.4644 253.44 39.8506 250.384 44.5384 248.836C45.3611 248.565 46.1795 248.28 46.9675 248.013C46.9581 247.609 46.7436 247.449 46.5285 247.307C40.775 243.502 36.1588 238.607 32.3272 232.883C27.1305 225.121 24.3965 216.585 24.0617 207.297C23.6871 196.906 25.2749 186.701 27.4325 176.585C29.163 168.472 30.7369 160.318 33.186 152.371C35.3864 145.231 37.5019 138.065 39.6764 130.917C39.9205 130.115 39.9743 129.483 39.3012 128.802C36.0722 125.536 33.3814 121.887 31.4459 117.688C30.4095 115.44 29.4078 113.199 29.2398 110.539C28.6719 110.847 28.3633 111.028 28.0439 111.187C25.302 112.549 22.9761 114.637 20.0586 115.706C18.7089 116.201 17.8258 115.677 17.1609 114.619C16.5058 113.576 17.1808 112.802 17.9362 112.222C19.0866 111.338 20.3013 110.532 21.5293 109.757C23.0609 108.79 24.4339 107.498 26.2309 107.051C27.223 106.804 27.4942 106.281 27.4447 105.398C27.3452 103.622 27.6061 101.875 27.9021 100.135C28.226 98.2312 27.8975 97.9237 26.0113 97.3024C21.7015 95.8827 16.8831 96.3086 12.9181 93.6719ZM64.0231 3.06814C63.5724 1.60283 54.6482 9.89602 53.3398 9.01279C53.9295 11.0438 57.9989 11.7426 59.1987 12.4385C60.9161 14.1879 62.894 15.2866 64.0231 15.1184C62.9082 13.5961 65.4359 3.18637 64.0231 3.06814ZM167.934 233.877C174.598 225.186 177.682 215.242 177.715 204.413C177.748 193.833 175.73 183.472 173.546 173.161C171.155 161.873 167.782 150.85 164.469 139.812C163.879 137.845 163.14 135.922 162.488 134.031C161.602 134.021 161.142 134.483 160.636 134.823C156.841 137.371 153.122 140.061 148.957 141.985C137.204 147.415 124.934 150.774 111.94 151.56C102.713 152.118 93.5169 151.841 84.4525 150.368C70.2511 148.061 56.8676 143.395 45.3029 134.449C44.2949 133.67 43.8701 134.002 43.5577 135.05C43.0981 136.592 42.6256 138.131 42.1158 139.657C39.5327 147.39 37.1581 155.195 35.2345 163.109C32.5164 174.291 29.8704 185.494 29.1438 197.061C28.7775 202.894 28.6493 208.68 29.7445 214.42C31.0091 221.048 33.7048 227.082 37.8208 232.457C46.3693 243.62 57.4769 249.609 71.7334 249.204C73.5911 249.152 75.3462 248.649 77.3514 247.776C75.6902 246.962 74.2025 246.621 72.9618 245.783C66.8866 241.676 60.9029 237.482 56.2458 231.67C52.3961 226.866 49.2344 221.744 47.9397 215.641C47.6825 214.428 47.3841 213.198 47.5058 211.948C47.5907 211.077 47.9775 210.356 49.0024 210.226C50.0102 210.099 50.5661 210.599 50.8644 211.493C51.1439 212.33 51.4217 213.168 51.6946 214.007C55.6685 226.23 63.4227 235.272 74.7882 241.179C86.3707 247.199 98.792 248.519 111.598 247.398C121.067 246.569 129.774 243.611 137.382 237.809C144.17 232.633 149.905 226.573 153.045 218.426C153.923 216.147 154.756 213.857 155.455 211.516C155.681 210.759 156.005 210.055 157.057 210.152C158.097 210.249 158.677 210.807 158.888 211.763C158.987 212.211 158.989 212.696 158.945 213.156C158.432 218.523 156.26 223.25 153.235 227.618C147.816 235.445 140.788 241.51 132.589 246.265C131.579 246.851 130.511 247.337 129.334 247.939C138.976 251.287 157.062 248.007 167.934 233.877ZM40.7564 76.7133C39.5542 79.5877 38.5292 82.5532 37.1099 85.3161C34.7537 89.9027 33.3004 94.7408 32.4955 99.7905C32.21 101.582 31.6239 103.37 31.8592 105.324C32.9316 104.954 32.7018 103.602 33.7475 103.421C34.0009 103.885 33.7869 104.349 33.8047 104.802C33.8817 106.765 33.6775 108.77 34.1474 110.683C35.6233 116.692 38.7894 121.817 43.1255 126.111C50.5765 133.49 59.6046 138.381 69.5129 141.559C79.0783 144.626 88.838 146.739 98.9887 146.77C108.028 146.797 117.002 146.779 125.922 144.787C135.539 142.641 144.702 139.543 153.054 134.236C158.409 130.833 163.159 126.689 166.99 121.678C170.702 116.823 173.281 111.416 171.937 104.952C171.847 104.517 171.665 103.906 172.308 103.61C173.134 103.915 172.991 105.023 173.813 105.348C174.289 104.798 174.125 104.146 174.074 103.564C173.532 97.3677 172.128 91.4298 169.329 85.8012C165.352 77.8024 162.526 69.2816 158.457 61.3176C154.281 53.1456 149.214 45.6944 141.734 40.0964C135.009 35.0643 127.856 30.9816 119.58 29.0947C117.653 28.6553 115.84 28.4838 114.023 29.5523C113.061 30.1178 111.937 30.4746 110.762 29.9056C110.525 28.2985 112.248 27.5402 112.349 25.9214C108.993 26.1638 106.108 28.0628 102.949 28.569C102.565 27.7458 102.886 27.2764 103.018 26.7931C103.507 24.9921 104.036 23.2015 104.502 21.3947C104.636 20.8782 105.103 20.2773 104.55 19.7939C103.939 19.2593 103.365 19.8089 102.846 20.0781C99.7431 21.687 96.8318 23.5808 94.2939 26.0064C92.7213 27.5093 90.9859 28.574 88.7301 28.847C83.2475 29.5105 78.1531 31.4239 73.3479 34.0926C65.6724 38.3555 58.9223 43.6789 53.9312 51.0455C48.5395 59.0034 44.4924 67.6414 40.7564 76.7133ZM174.431 23.9938C174.254 23.5064 174.084 23.016 173.897 22.532C172.846 19.8091 171.213 17.9885 167.939 18.5696C167.233 18.695 166.486 18.5687 165.76 18.6104C163.534 18.7386 161.5 19.3884 159.702 20.7689C155.931 23.6651 153.611 27.5067 152.246 31.9952C151.795 33.481 152.054 33.8284 153.587 33.5241C156.025 33.0402 158.431 33.0327 160.834 33.7165C162.484 34.1862 163.875 35.0439 164.944 36.3875C165.422 36.989 166.122 37.6759 165.667 38.4505C165.192 39.2584 164.275 38.8753 163.541 38.694C162.534 38.4451 161.554 38.0792 160.541 37.8589C157.79 37.2602 155.159 37.5738 152.785 39.1695C150.959 40.397 150.95 41.397 152.62 42.8253C153.495 43.5731 154.378 44.1729 155.585 44.3998C157.24 44.7112 157.701 45.9053 156.969 47.404C156.375 48.618 156.787 49.2897 158.132 49.3121C158.719 49.3218 159.251 49.1346 159.783 48.9121C161.484 48.2005 162.932 47.1191 164.315 45.9225C164.958 45.3669 165.671 44.4795 166.6 45.1664C167.473 45.8114 167.211 46.8906 166.903 47.7603C166.649 48.4778 166.206 49.156 165.731 49.762C164.73 51.0411 163.452 52.0223 162.104 52.9221C161.627 53.2408 160.92 53.4383 161.062 54.513C164.674 53.8723 167.278 51.6622 169.435 49.0818C175.556 41.7562 176.988 33.3643 174.431 23.9938ZM46.3357 33.4714C48.2538 33.3563 50.1679 33.2899 52.0855 33.5397C53.6879 33.7485 54.1611 33.146 53.7108 31.5436C53.3297 30.1878 52.7273 28.9218 52.0731 27.6806C48.8018 21.4739 43.9274 17.9283 36.646 18.633C34.8908 18.8028 33.2802 19.4241 32.4438 21.3674C31.0039 24.7126 30.2766 28.198 30.2228 31.7903C30.1495 36.6877 31.7711 41.1629 34.1716 45.3667C35.8907 48.377 37.9619 51.0816 41.1327 52.73C41.6988 53.0243 42.2694 53.5058 42.9336 52.8731C42.7502 51.9035 41.9346 51.5114 41.3848 50.9266C40.1698 49.6342 39.3239 48.1987 39.3286 46.3695C39.3302 45.7833 39.3922 45.1517 39.9932 44.9066C40.5756 44.6691 41.0963 45.0187 41.5357 45.4129C42.2682 46.0702 42.9447 46.8011 43.7312 47.3846C45.5583 48.7399 46.1027 48.6963 47.9647 47.2719C47.2764 45.7996 46.9625 44.2535 46.8748 42.6278C46.7637 40.5665 46.1937 40.1244 44.164 40.2215C43.7006 40.2436 43.22 40.253 42.771 40.1571C41.8995 39.9711 40.9983 39.7144 40.6743 38.7564C40.3496 37.7963 40.8878 37.0463 41.5019 36.3825C42.7641 35.018 44.3499 34.155 46.3357 33.4714ZM43.4444 254.411C40.8675 255.816 39.1095 257.919 38.1339 260.677C37.9681 261.146 37.6799 261.661 38.2611 262.08C39.3658 262.875 41.7137 262.174 42.2769 260.889C43.4519 258.209 45.4621 256.308 47.9895 254.943C49.1597 254.311 50.4908 254.092 51.3365 255.381C52.2151 256.721 50.9842 257.48 50.1254 258.149C49.0738 258.968 48.2983 259.972 47.606 261.078C46.9788 262.081 47.1783 262.613 48.4098 262.679C50.1562 262.772 51.8759 262.601 53.696 262.309C53.3267 262.011 52.7979 262.058 52.8715 261.548C52.9333 261.119 53.3098 260.997 53.6744 260.925C54.2708 260.807 54.8752 260.891 55.2432 261.376C55.7634 262.062 56.4027 262.181 57.1667 262.034C63.0251 260.91 68.8959 259.828 74.4703 257.603C75.5462 257.173 76.4552 256.471 77.1308 255.512C77.5237 254.954 77.9475 254.319 77.5578 253.651C77.194 253.027 76.5021 253.375 75.9786 253.452C70.147 254.308 64.3686 254.014 58.6955 252.462C53.3919 251.012 48.4355 251.841 43.4444 254.411ZM164.534 255.661C163.279 254.445 161.814 253.533 160.148 253.061C155.82 251.837 151.462 250.933 146.994 252.483C146.317 252.718 145.569 252.745 144.854 252.875C140.129 253.729 135.378 254.014 130.586 253.611C129.164 253.492 128.78 254.122 129.407 255.41C130.067 256.764 131.271 257.559 132.587 258.026C137.782 259.87 143.158 261.025 148.577 261.985C149.208 262.097 149.814 262.213 150.219 261.309C150.598 260.464 151.483 260.907 152.171 261.1C152.778 261.27 153.206 261.561 152.783 262.278C154.166 262.517 155.441 261.92 156.744 262.202C157.29 262.32 157.942 262.514 158.299 261.894C158.638 261.307 158.217 260.766 157.888 260.332C157.2 259.424 156.434 258.574 155.689 257.71C155.19 257.132 154.763 256.472 155.147 255.738C155.554 254.962 156.398 255.085 157.108 255.19C158.564 255.404 159.931 255.879 161.106 256.811C162.483 257.903 163.486 259.218 163.957 260.963C164.319 262.306 165.316 262.595 166.968 262.066C168.385 261.612 167.697 260.668 167.437 259.915C166.886 258.32 165.964 256.942 164.534 255.661ZM162.331 13.344C161.347 13.3349 160.369 13.2991 159.383 13.4611C149.274 15.1217 142.17 20.6968 137.796 29.8997C137.346 30.847 137.436 31.4031 138.323 31.9383C140.281 33.12 142.066 34.5464 143.87 35.947C145.37 37.1121 145.989 36.9022 146.354 35.0101C147.339 29.9075 149.6 25.3974 152.678 21.2741C154.629 18.6608 156.983 16.5008 160.054 15.2282C161.671 14.5585 163.387 14.3534 165.323 14.2229C164.37 13.4639 163.433 13.5946 162.331 13.344ZM49.0001 16.8629C55.6189 21.933 58.6177 29.0782 60.3404 36.9669C60.6819 36.8869 60.9218 36.899 61.0645 36.7871C63.3094 35.0265 65.5797 33.3029 67.9779 31.7521C68.8129 31.2122 68.7307 30.4856 68.3113 29.712C63.6595 21.1319 56.8251 15.3363 47.0922 13.4654C44.0323 12.8772 40.9315 13.2171 37.9061 14.9272C45.0902 14.6669 45.6144 14.7563 49.0001 16.8629ZM181.893 237.264C178.642 237.598 175.389 237.921 172.14 238.274C171.147 238.382 170.083 238.59 169.49 239.427C167.574 242.128 164.632 243.604 162.226 245.715C161.66 246.212 160.951 246.627 160.84 247.442C160.979 247.766 161.198 247.901 161.465 247.93C163.099 248.111 164.7 247.797 166.221 247.317C173.345 245.067 180.443 242.737 187.546 240.422C187.879 240.314 188.401 240.125 188.446 239.897C188.777 238.206 190.168 238.539 191.269 238.353C191.776 238.268 192.305 238.326 192.824 238.302C193.325 238.28 193.825 238.237 194.326 238.203C190.286 237.07 186.233 237.245 181.893 237.264ZM86.056 264.186C86.8878 264.055 86.0884 263.4 86.056 262.679C85.9837 261.066 88.0527 265.198 88.0833 263.722C89.3373 262.816 89.0762 263.449 90.1106 263.722C91.8639 264.184 89.3288 262.061 91.0463 262.461C93.7212 263.084 100.531 262.218 103.21 262.461C108.296 262.922 98.835 262.79 103.834 261.894C105.383 261.616 112.021 262.603 113.502 261.952C114.708 261.422 118.118 260.555 118.025 261.919C117.905 263.667 123.344 260.165 124.106 261.624C126.97 263.838 124.757 259.277 125.64 258.776C124.366 256.383 123.606 253.848 123.78 251.085C123.826 250.346 123.076 250.282 122.477 250.393C121.305 250.611 120.136 250.848 118.973 251.112C111.162 252.886 103.295 253.337 95.326 252.353C91.4535 251.875 87.6874 250.915 83.8655 250.214C82.8588 250.03 82.093 250.139 82.3002 251.357C82.779 254.172 74.2481 262.266 72.6448 264.743C73.3957 264.743 67.1868 267.178 86.056 264.186ZM119.546 24.3182C123.711 24.8118 127.642 26.1339 131.444 27.8275C132.693 28.3842 133.29 28.134 133.88 26.9579C137.212 20.323 142.009 15.0915 148.69 11.6853C149.127 11.4621 149.841 11.3504 149.714 10.3854C147.072 10.836 150.512 1.46927 148.69 3.06814C137.05 2.28842 134.926 4.33349 132.969 8.25157C132.509 9.17266 132.034 -1.05934 131.444 -0.206697C125.856 -27.0389 125.826 1.7794 125.198 1.50869C122.594 0.385628 126.44 6.101 123.639 5.56325C121.652 5.18187 123.949 8.30541 122.859 6.18703C122.03 4.57599 123.745 7.06509 121.923 7.1227C120.043 7.18216 118.303 6.75455 118.881 4.93947C119.642 2.55349 111.771 6.44386 109.292 6.18703C107.346 5.98541 102.494 5.37054 100.715 6.18703C95.6565 8.50862 91.249 19.6406 87.2817 23.8118C88.2616 23.4122 92.0544 22.2083 92.7386 21.4222C94.8428 19.0045 97.5477 17.3524 100.212 15.6448C102.608 14.1089 105.148 13.0177 108.006 12.7149C110.114 12.4916 111.444 13.6748 111.229 15.7779C111.119 16.8539 110.778 17.9063 110.542 18.9695C110.218 20.4285 110.524 20.7871 112.032 20.502C113.593 20.2068 115.124 20.2237 116.67 20.5629C117.989 20.8524 118.764 21.5165 118.352 22.967C118.099 23.8598 118.426 24.249 119.546 24.3182ZM85.1204 -2.54587C83.4791 -2.10725 72.0757 0.518359 70.4616 1.04086C66.9261 2.18534 75.2934 25.8423 74.453 27.3358C78.158 25.9652 83.7044 24.7787 87.2817 23.8118C86.9019 23.0711 85.835 -2.6078 85.1204 -2.54587ZM71.062 24.7798C71.3329 25.2816 71.6001 25.7855 71.8754 26.2848C72.5116 27.4384 72.8175 27.5715 74.453 27.3358C71.6306 24.8256 67.1846 17.302 64.0231 15.1184C64.6474 17.352 69.9841 22.5478 71.062 24.7798ZM48.5422 40.8178C48.159 41.2134 47.8723 41.6527 48.2674 42.1782C48.6412 42.6751 49.196 42.8242 49.789 42.7139C50.4449 42.592 50.9131 42.2061 51.0896 41.5423C51.1996 41.1289 51.2097 40.6799 50.8323 40.4062C50.0644 39.8492 49.3738 40.2239 48.5422 40.8178Z" fill="#8E10CE"/>
        <path d="M42.2776 164.472C42.1257 162.471 41.8437 160.611 42.2794 158.754C42.4089 158.202 42.5448 157.649 42.7213 157.11C43.0297 156.169 43.7235 155.859 44.6703 155.965C45.6208 156.072 45.9812 156.69 46.1074 157.537C46.4066 159.546 46.2568 161.576 46.4018 163.597C46.7732 168.774 49.6093 172.517 53.2753 175.727C57.3278 179.275 61.8562 182.112 67.0203 183.811C69.0072 184.465 70.8258 185.462 72.6611 186.435C73.1531 186.696 73.7416 187.092 74.2577 186.661C74.838 186.177 74.4411 185.5 74.3225 184.911C74.2025 184.315 73.3293 183.725 74.1658 183.131C75.0071 182.532 75.9343 182.684 76.8032 183.202C77.5425 183.643 77.9194 184.591 78.9756 184.744C79.5173 183.887 79.0408 183.145 78.7101 182.428C78.426 181.811 78.1086 181.233 78.1525 180.516C78.268 178.632 79.4358 177.964 81.0923 178.853C81.3611 178.997 81.6409 179.122 81.9198 179.246C81.9495 179.259 82.0078 179.208 82.146 179.143C82.1502 178.28 81.7745 177.492 81.4213 176.701C79.2927 171.938 76.5304 167.557 73.4747 163.34C71.6474 160.818 69.9662 158.193 68.042 155.736C67.4845 155.025 66.7898 154.129 67.6646 153.232C68.5583 152.316 69.6896 152.215 70.8013 152.9C71.9651 153.616 72.9372 154.574 73.7255 155.674C77.4454 160.864 81.2668 166.001 84.1454 171.727C85.9545 175.326 87.1978 179.086 86.4986 183.256C86.1813 185.148 85.531 186.64 83.565 187.241C83.0008 187.413 82.552 187.747 82.1482 188.166C81.2954 189.05 80.2674 189.616 79.0572 189.861C78.0859 190.056 77.1794 190.364 76.3892 191.034C75.4078 191.866 74.1777 191.842 73.1422 191.314C67.9188 188.651 62.0521 187.466 57.0602 184.29C55.2633 183.147 53.5169 181.929 51.897 180.539C51.1878 179.93 50.5087 179.274 49.7422 178.747C44.7813 175.333 43.0883 170.21 42.2776 164.472Z" fill="#8E10CE"/>
        <path d="M155.784 182.761C152.639 184.945 149.283 186.447 145.803 187.707C143.651 188.486 141.57 189.417 139.633 190.663C137.616 191.96 135.607 192.345 133.711 190.391C133.34 190.008 132.818 189.889 132.301 189.781C129.984 189.294 128.11 187.975 126.387 186.459C124.795 185.059 124.84 183.008 124.642 181.127C124.099 175.976 126.172 171.505 128.802 167.362C131.55 163.031 134.213 158.608 137.696 154.778C138.513 153.879 139.391 153.102 140.476 152.56C141.028 152.284 141.558 152.224 142.076 152.648C142.612 153.087 142.807 153.641 142.665 154.311C142.488 155.142 142.037 155.846 141.573 156.536C139.165 160.111 136.779 163.703 134.323 167.245C132.356 170.081 130.821 173.133 129.513 176.31C129.26 176.926 128.996 177.554 129.086 178.249C129.657 178.749 130.06 178.186 130.512 178.05C131.955 177.619 132.921 178.456 132.582 179.922C132.334 180.995 131.686 181.901 131.188 182.869C130.908 183.414 130.539 183.996 131.151 184.57C131.741 185.123 132.317 184.825 132.858 184.494C133.567 184.06 134.237 183.564 134.947 183.132C135.645 182.707 136.43 182.501 137.145 182.998C137.9 183.521 137.648 184.242 137.359 184.96C137.193 185.373 137.004 185.845 137.309 186.26C137.559 186.492 137.82 186.5 138.069 186.4C145.618 183.382 153.002 180.131 158.878 174.198C162.669 170.37 164.432 165.904 164.122 160.569C164.08 159.843 164.019 159.116 164.014 158.389C164.004 157.214 163.974 156.058 165.67 155.969C167.667 155.864 168.608 156.378 168.734 158.185C168.991 161.882 168.541 165.479 167.496 169.09C165.94 174.473 161.855 177.648 157.956 181.056C157.293 181.636 156.569 182.148 155.784 182.761Z" fill="#8E10CE"/>
        <path d="M101.078 207.784C101.83 209.416 103.075 210.574 103.93 211.995C104.414 212.8 104.991 213.717 104.236 214.571C103.459 215.45 102.407 215.094 101.479 214.712C98.7559 213.593 96.7466 209.436 97.5562 206.624C97.7372 205.995 98.0852 205.498 98.806 205.392C99.4812 205.292 99.8836 205.676 100.194 206.187C100.49 206.674 100.749 207.184 101.078 207.784Z" fill="#8E10CE"/>
        <path d="M110.829 207.99C112.024 209.337 113.424 210.474 112.682 212.508C112.197 213.837 111.243 214.246 110.024 213.552C108.366 212.609 107.529 210.164 108.293 208.397C108.862 207.081 109.732 207.076 110.829 207.99Z" fill="#8E10CE"/>
        <path d="M167.569 222.514C167.638 225.058 165.604 225.867 163.884 226.865C163.241 227.239 162.415 227.639 161.156 226.911C163.4 225.345 165.446 223.916 167.569 222.514Z" fill="#8E10CE"/>
        <path d="M60.5522 74.7781C61.6335 72.8339 63.104 71.3217 64.3243 69.6166C60.0312 71.4207 57.6799 74.9195 56.6775 79.2101C53.904 91.0813 59.7197 97.8482 70.4738 101.348C70.2247 102.941 69.3579 103.452 68.0512 103.449C64.787 103.442 61.7885 102.635 59.2183 100.536C54.3821 96.5874 52.0269 91.3882 51.6388 85.249C51.2264 78.7244 52.9256 72.8917 57.6374 68.1713C64.3807 61.4156 76.7325 58.7723 84.9949 67.8778C91.4384 74.9787 92.9275 84.4514 87.6164 91.8757C83.4846 97.6513 77.5351 99.908 70.6313 98.3715C64.3641 96.9766 60.1958 92.8934 58.7473 86.5187C57.8308 82.4857 58.737 78.5837 60.5522 74.7781ZM79.9936 76.818C80.6802 74.9774 80.2901 73.2476 79.4472 71.5671C78.1349 68.9506 75.8647 67.8366 72.566 68.1855C70.1659 68.4394 67.8671 70.5781 67.1837 73.193C66.4723 75.9147 67.3926 78.4953 69.569 80.0921C72.5533 82.2819 78.46 82.0395 79.9936 76.818ZM79.3261 84.4794C79.2923 85.2183 79.6489 85.772 80.1824 86.2274C81.2834 87.1671 82.6206 87.1094 83.4944 86.097C84.373 85.0791 84.1678 83.8135 82.9688 82.8541C81.4888 81.6698 80.1346 82.1901 79.3261 84.4794ZM63.8933 86.9389C65.2713 87.0381 66.0873 86.3392 66.2674 85.0388C66.4358 83.8234 65.6292 83.0821 64.5973 82.7153C63.4753 82.3165 62.7094 83.0331 62.1514 83.8894C61.4475 84.9693 61.933 85.8646 63.8933 86.9389Z" fill="#8E10CE"/>
        <path d="M147.966 72.3113C149.669 74.934 151.284 77.4648 151.687 80.5642C152.833 89.361 147.287 96.9304 138.564 98.4404C129.064 100.085 120.384 92.6934 120.233 82.9987C120.123 76.0152 122.698 70.3039 128.036 65.9373C133.829 61.1977 141.758 60.8361 148.395 65.1457C156.142 70.1756 159.683 77.3157 158.579 86.6401C157.871 92.6147 155.114 97.3372 150.26 100.832C147.744 102.644 144.901 103.535 141.778 103.433C141.415 103.421 141.048 103.402 140.694 103.331C139.835 103.16 139.32 102.645 139.224 101.751C139.114 100.722 139.969 100.733 140.568 100.595C144.444 99.7043 147.729 97.7848 150.326 94.8075C154.852 89.6198 155.471 82.6413 152.153 76.0159C150.967 73.6473 149.325 71.7144 147.04 70.317C147.28 70.9837 147.916 71.4503 147.966 72.3113ZM141.512 69.5483C141.211 69.346 140.925 69.1179 140.608 68.9452C137.231 67.1034 133.274 68.3201 131.605 71.7059C129.883 75.1994 131.068 79.1304 134.29 80.6141C138.133 82.3836 142.156 80.96 143.654 77.3004C144.717 74.7056 144.004 71.9483 141.512 69.5483ZM147.059 82.703C145.814 81.9982 144.644 81.9927 143.861 83.3269C143.254 84.3607 143.38 85.4246 144.358 86.2377C145.267 86.9939 146.63 86.8768 147.409 85.9671C148.326 84.8962 148.3 83.8325 147.059 82.703ZM126.732 84.6912C127.013 85.9239 127.88 86.6118 129.046 86.607C130.1 86.6027 130.889 85.8551 131.133 84.8087C131.397 83.6786 130.654 82.9332 129.804 82.3892C128.494 81.5497 127.152 82.4758 126.732 84.6912Z" fill="#8E10CE"/>
        <path d="M120.952 110.352C121.774 112.51 120.663 115.251 118.449 116.725C117.185 117.566 115.808 118.195 114.329 118.522C113.216 118.769 112.74 119.258 112.616 120.492C112.251 124.119 110.156 125.9 106.479 125.918C105.032 125.925 103.58 126.037 102.144 125.633C99.9279 125.008 98.4502 123.636 98.1355 121.365C97.872 119.463 97.0951 118.522 95.1116 118.146C92.3054 117.614 90.5006 115.686 89.5668 112.986C89.2005 111.927 89.3362 110.921 90.0725 110.059C91.1932 108.747 92.5548 108.92 93.1993 110.515C93.7259 111.817 94.4239 112.877 95.7205 113.538C98.492 114.951 101.202 113.899 102.302 110.982C102.669 110.01 102.104 109.538 101.508 109.013C99.5239 107.26 97.4657 105.582 95.8654 103.44C94.7586 101.959 93.9712 100.417 93.9998 98.4518C94.0292 96.4356 94.9251 95.093 96.5809 94.1675C99.3286 92.6319 102.336 92.0787 105.437 92.1417C107.874 92.1912 110.306 92.4236 112.611 93.3685C116.679 95.0356 117.892 98.4136 115.578 102.152C113.919 104.831 111.543 106.882 109.06 108.786C107.504 109.98 107.416 110.435 108.71 111.888C109.917 113.243 111.313 114.264 113.273 114.171C115.164 114.081 116.47 113.043 117.092 111.069C117.869 108.599 118.995 108.355 120.952 110.352ZM101.729 119.131C102.701 121.678 103.15 121.984 105.859 121.95C107.772 121.926 109.085 120.671 109.027 118.92C109.002 118.185 105.985 115.45 105.277 115.549C105.09 115.576 104.886 115.708 104.753 115.849C103.994 116.654 103.095 117.251 102.11 117.737C101.61 117.984 101.503 118.41 101.729 119.131ZM110.724 97.3058C110.568 97.1094 110.451 96.8119 110.248 96.7315C106.792 95.36 103.347 95.6537 99.9738 96.9901C99.0792 97.3445 99.219 98.1217 100.065 98.4472C101.169 98.8718 102.328 99.266 103.493 99.393C106.11 99.6783 108.652 99.4399 110.724 97.3058Z" fill="#8E10CE"/>
        <path d="M141.759 52.8092C142.12 53.8128 142.113 54.681 141.396 55.3678C140.642 56.0891 139.82 55.6268 139.08 55.3143C137.055 54.4597 134.941 54.0409 132.766 53.8483C131.53 53.7389 130.238 53.4781 130.142 51.9728C130.049 50.5038 130.997 49.6367 132.398 49.2176C135.418 48.3142 139.863 49.9591 141.759 52.8092Z" fill="#8E10CE"/>
        <path d="M78.6557 49.5057C79.9279 50.0604 80.4307 50.9427 80.2031 52.1797C79.9797 53.3938 79.0682 53.8815 77.9686 54.0072C75.5829 54.28 73.2714 54.8122 71.062 55.7639C70.4207 56.0402 69.8441 55.93 69.3467 55.4405C68.8096 54.912 68.7071 54.2723 68.9101 53.5739C69.2477 52.4118 70.052 51.577 71.0161 50.9555C73.3118 49.4757 75.7763 48.6694 78.6557 49.5057Z" fill="#8E10CE"/>
        <path d="M144.826 107.382C145.865 107.719 146.614 108.247 147.158 109.052C147.425 109.446 147.622 109.86 147.587 110.355C147.514 111.388 146.451 112.205 145.24 112.155C143.485 112.082 141.695 110.601 141.749 109.199C141.802 107.842 142.674 107.323 143.927 107.297C144.185 107.292 144.444 107.332 144.826 107.382Z" fill="#8E10CE"/>
        <rect x="77.6346" y="258.973" width="48.0309" height="6.86156" fill="white"/>
        <rect x="200.832" y="55.6214" width="3.43078" height="178.089" fill="white"/>
        <rect x="188.356" y="109.578" width="12.4756" height="16.2182" fill="white"/>
        <path d="M84.1847 7.59059H99.4673L92.8015 17.1307L89.7987 22.4053L87.1111 23.8088L84.1847 7.59059Z" fill="white"/>
        <path d="M63.9115 15.2319L63.5996 13.8284L63.9115 8.21442H74.5157V27.3956L71.7087 25.2124L66.7185 17.883L63.9115 15.2319Z" fill="white"/>
        <path d="M147.498 7.90245H153.736V9.4619L149.525 11.1773L147.498 9.4619V7.90245Z" fill="white"/>
    </g>
    <rect x="72.6455" y="264.899" width="6.86156" height="2.18322" fill="white"/>
    <rect x="69.8379" y="7.90245" width="79.2198" height="1.24756" fill="white"/>
    <rect x="51.7489" y="7.59059" width="14.035" height="1.55944" fill="white"/>
    <path d="M270.31 136.72C270.31 145.886 272.247 153.954 276.119 160.925C280.121 167.896 285.478 173.317 292.191 177.19C298.904 181.063 306.391 182.999 314.653 182.999C323.043 182.999 330.466 181.192 336.921 177.577C343.375 173.834 348.41 168.67 352.024 162.086C355.639 155.503 357.446 147.887 357.446 139.238C357.446 130.46 355.639 122.521 352.024 115.421C348.41 108.321 343.246 102.641 336.533 98.3809C329.95 94.121 322.14 91.991 313.104 91.991C304.713 91.991 297.29 93.9273 290.836 97.8C284.51 101.673 279.476 106.965 275.732 113.678C272.118 120.391 270.31 128.071 270.31 136.72ZM241.072 136.72C241.072 126.393 242.879 116.97 246.493 108.45C250.108 99.8009 255.207 92.3137 261.791 85.9883C268.374 79.663 275.99 74.8221 284.639 71.4658C293.417 67.9804 302.906 66.2377 313.104 66.2377C323.431 66.2377 332.919 67.9804 341.568 71.4658C350.217 74.8221 357.704 79.663 364.029 85.9883C370.484 92.3137 375.454 99.8009 378.939 108.45C382.554 116.97 384.361 126.393 384.361 136.72C384.361 146.918 382.618 156.407 379.133 165.185C375.647 173.834 370.677 181.385 364.223 187.84C357.898 194.294 350.41 199.329 341.761 202.943C333.112 206.429 323.56 208.171 313.104 208.171C302.776 208.171 293.224 206.429 284.446 202.943C275.668 199.329 267.987 194.294 261.403 187.84C254.949 181.385 249.914 173.834 246.3 165.185C242.814 156.407 241.072 146.918 241.072 136.72ZM304.584 146.402H334.597L397.528 206.235H366.74L304.584 146.402ZM425.57 169.638C425.57 175.447 426.732 179.965 429.056 183.193C431.379 186.291 435.123 187.84 440.286 187.84C443.901 187.84 446.999 187.13 449.581 185.71C452.292 184.161 454.357 182.031 455.777 179.32C457.326 176.609 458.101 173.382 458.101 169.638V115.421H483.079V204.492H458.101V190.938C455.261 195.972 451.646 199.845 447.257 202.556C442.868 205.138 437.511 206.429 431.186 206.429C420.6 206.429 412.661 203.395 407.369 197.328C402.205 191.261 399.623 182.934 399.623 172.349V115.421H425.57V169.638ZM492.102 159.957C492.102 150.662 494.232 142.529 498.491 135.559C502.88 128.588 508.754 123.166 516.112 119.293C523.599 115.421 532.055 113.484 541.478 113.484C550.902 113.484 559.293 115.421 566.651 119.293C574.138 123.166 580.011 128.588 584.271 135.559C588.66 142.529 590.855 150.662 590.855 159.957C590.855 169.122 588.66 177.254 584.271 184.354C580.011 191.325 574.138 196.747 566.651 200.62C559.293 204.492 550.902 206.429 541.478 206.429C532.055 206.429 523.599 204.492 516.112 200.62C508.754 196.747 502.88 191.325 498.491 184.354C494.232 177.254 492.102 169.122 492.102 159.957ZM517.661 159.957C517.661 164.991 518.694 169.445 520.759 173.317C522.954 177.061 525.858 180.03 529.473 182.224C533.087 184.29 537.089 185.323 541.478 185.323C545.867 185.323 549.869 184.29 553.483 182.224C557.098 180.03 559.938 177.061 562.003 173.317C564.198 169.445 565.295 164.991 565.295 159.957C565.295 154.922 564.198 150.468 562.003 146.596C559.938 142.723 557.098 139.754 553.483 137.689C549.869 135.623 545.867 134.59 541.478 134.59C537.089 134.59 533.087 135.623 529.473 137.689C525.858 139.754 522.954 142.723 520.759 146.596C518.694 150.468 517.661 154.922 517.661 159.957ZM599.408 53.4578H623.612V204.492H599.408V53.4578ZM656.336 115.421H686.35L648.01 152.211L690.222 204.492H660.403L617.997 152.211L656.336 115.421ZM693.162 53.4578H717.366V204.492H693.162V53.4578ZM750.09 115.421H780.103L741.764 152.211L783.976 204.492H754.156L711.751 152.211L750.09 115.421ZM805.311 176.803C805.311 179.384 805.956 181.644 807.247 183.58C808.538 185.387 810.28 186.807 812.475 187.84C814.799 188.743 817.316 189.195 820.027 189.195C823.899 189.195 827.385 188.421 830.483 186.872C833.581 185.193 836.098 182.87 838.035 179.901C839.971 176.803 840.939 173.124 840.939 168.864L844.037 180.482C844.037 186.162 842.424 190.938 839.196 194.811C836.098 198.683 832.032 201.588 826.998 203.524C822.092 205.46 816.929 206.429 811.507 206.429C805.956 206.429 800.792 205.331 796.016 203.137C791.24 200.942 787.367 197.78 784.398 193.649C781.558 189.389 780.138 184.225 780.138 178.158C780.138 169.509 783.172 162.667 789.239 157.633C795.306 152.598 803.891 150.081 814.992 150.081C820.672 150.081 825.642 150.662 829.902 151.824C834.291 152.986 837.97 154.406 840.939 156.084C843.908 157.762 846.038 159.376 847.329 160.925V172.543C843.844 169.961 839.906 168.025 835.517 166.734C831.257 165.443 826.739 164.797 821.963 164.797C818.09 164.797 814.928 165.314 812.475 166.346C810.022 167.25 808.215 168.605 807.053 170.413C805.891 172.091 805.311 174.221 805.311 176.803ZM795.629 140.593L786.334 123.553C790.982 121.101 796.662 118.777 803.374 116.583C810.087 114.259 817.574 113.097 825.836 113.097C833.452 113.097 840.229 114.194 846.167 116.389C852.105 118.583 856.753 121.811 860.109 126.071C863.465 130.201 865.143 135.3 865.143 141.368V204.492H840.939V146.596C840.939 144.143 840.552 142.078 839.777 140.399C839.003 138.592 837.776 137.108 836.098 135.946C834.549 134.784 832.677 133.945 830.483 133.429C828.288 132.912 825.836 132.654 823.125 132.654C818.994 132.654 815.057 133.106 811.313 134.01C807.57 134.913 804.342 136.01 801.631 137.301C798.921 138.592 796.92 139.689 795.629 140.593Z" fill="#9609DE"/>
    <defs>
        <clipPath id="clip0_121_87">
            <rect width="189.628" height="259.492" fill="white" transform="translate(14.6342 7.90245)"/>
        </clipPath>
    </defs>
</svg>
